<svg width="800" height="800" viewBox="0 0 800 800" fill="none" xmlns="http://www.w3.org/2000/svg">
<path fill-rule="evenodd" clip-rule="evenodd" d="M241.306 432C217.839 399.59 204 359.713 204 316.595C204 208.02 291.752 120 400 120C508.248 120 596 208.017 596 316.595C596 359.713 582.161 399.59 558.694 432L464.554 278.667L455.463 294.062L464.687 336.88L400 225.86L359.984 293.63L369.302 336.878L335.396 278.752L241.306 432Z" fill="white"/>
<path fill-rule="evenodd" clip-rule="evenodd" d="M755.071 568.309C756.729 568.996 758.506 569.349 760.301 569.347C762.099 569.351 763.879 569 765.541 568.314C767.203 567.629 768.714 566.622 769.986 565.352C771.258 564.082 772.268 562.573 772.957 560.913C773.646 559.252 774 557.472 774 555.674C774 552.047 772.56 548.569 769.996 546.005C767.432 543.441 763.954 542 760.328 542C756.702 542 753.225 543.441 750.661 546.005C748.097 548.569 746.657 552.047 746.657 555.674C746.651 557.468 747 559.247 747.684 560.906C748.367 562.566 749.371 564.074 750.639 565.345C751.907 566.615 753.413 567.623 755.071 568.309ZM749.247 555.674C749.247 549.459 754.176 544.489 760.301 544.489C766.378 544.489 771.409 549.452 771.409 555.674C771.409 561.888 766.385 566.859 760.301 566.859C754.176 566.859 749.247 561.895 749.247 555.674ZM758.264 563.481V557.861H760.65L763.493 563.481H767.027L763.787 557.267C764.701 556.94 765.485 556.329 766.024 555.522C766.564 554.716 766.829 553.757 766.781 552.788C766.781 549.459 764.238 547.866 761.203 547.866H755.024V563.481H758.264ZM760.95 550.949C762.195 550.949 763.493 551.346 763.493 552.891C763.493 554.334 762.195 554.826 760.998 554.826H758.264V550.949H760.95ZM348.133 636.542H347.87C343.279 643.369 335.934 646.783 326.096 646.783C316.258 646.783 308.257 643.238 302.092 636.017C295.928 628.797 292.779 620.132 292.779 610.285C292.779 600.963 295.928 592.561 302.353 585.209C308.781 577.725 316.782 574.048 326.357 574.048C335.146 574.048 342.098 577.2 347.345 583.37H347.608V542.668H367.94V645.469H348.133V636.542ZM330.818 592.559C320.98 592.559 313.504 599.911 313.504 610.283C313.504 615.535 315.209 619.866 318.487 623.28C321.766 626.562 325.964 628.268 330.818 628.268C335.672 628.268 339.868 626.562 343.149 623.28C346.428 619.866 348.133 615.533 348.133 610.283C348.133 599.911 340.656 592.559 330.818 592.559ZM60 645.471H80.9881V574.573L128.211 645.471H149.853V542.67H128.865V609.76L84.2667 542.67H60V645.471ZM197.982 573.783C187.356 573.783 178.174 577.328 170.698 584.419C163.221 591.378 159.549 600.175 159.547 610.545C159.547 621.049 163.221 629.714 170.566 636.673C177.911 643.632 186.963 647.045 197.718 647.045C208.344 647.045 217.394 643.5 224.871 636.541C232.348 629.451 236.021 620.656 236.021 610.152C236.021 599.779 232.348 591.246 225.003 584.287C217.658 577.328 208.607 573.783 197.982 573.783ZM197.852 628.271C192.998 628.271 188.8 626.564 185.521 623.283C182.241 619.869 180.536 615.535 180.538 610.283C180.538 605.163 182.243 600.829 185.521 597.548C188.802 594.134 192.866 592.428 197.72 592.428C202.575 592.428 206.773 594.134 210.051 597.548C213.33 600.829 215.035 605.163 215.035 610.283C215.035 620.787 207.69 628.271 197.852 628.271ZM286.005 574.568C276.696 574.568 269.221 579.69 266.198 586.126H266.068V575.366H245.736V645.474H266.198V615.803C266.198 603.197 271.971 594.917 285.219 594.917C286.54 594.917 287.794 594.993 289.028 595.168V574.807C288.189 574.634 287.184 574.568 286.005 574.568ZM714.213 586.126C717.236 579.69 724.711 574.568 734.021 574.568C735.199 574.568 736.204 574.634 737.044 574.807V595.168C735.809 594.993 734.555 594.917 733.235 594.917C719.987 594.917 714.213 603.197 714.213 615.803V645.474H693.751V575.366H714.083V586.126H714.213ZM405.496 625.252V542.668H384.378V645.471H449.438V625.252H405.496ZM463.998 641.138C459.407 637.331 457.178 632.211 457.178 625.907V625.646C457.178 617.373 461.244 611.335 467.54 608.315C473.968 605.295 480.525 604.113 488.397 604.113H495.349C499.022 604.113 500.857 602.406 500.857 598.993C500.857 594.134 496.922 590.327 489.577 590.327C482.625 590.327 477.51 593.479 473.968 599.781L458.358 590.459C464.393 579.298 475.148 573.785 490.495 573.785C508.99 573.785 520.926 583.632 520.926 602.013V645.472H502.038V636.804L501.774 636.673C497.052 643.368 490.1 646.781 480.786 646.781C474.231 646.783 468.589 644.945 463.998 641.138ZM500.727 618.292V616.717H488.397C482.493 616.717 477.771 619.473 477.771 624.725C477.771 629.452 481.444 631.816 486.691 631.816C495.48 631.816 500.727 626.039 500.727 618.292ZM550.322 575.36H527.76L557.274 637.986L540.091 680H561.997L604.495 575.36H583.378L567.768 615.403L550.322 575.36ZM628.697 616.06C629.878 624.594 637.223 629.846 646.012 629.846C652.176 629.846 658.472 626.564 661.621 621.444L676.443 631.159C670.54 641.795 660.572 647.045 646.273 647.045C635.386 647.045 626.336 643.631 618.859 636.805C611.514 629.846 607.841 621.049 607.841 610.283C607.841 600.175 611.514 591.639 618.727 584.419C626.073 577.199 634.861 573.653 644.961 573.653C655.323 573.653 663.717 576.935 670.145 583.369C676.572 589.802 679.851 598.336 679.851 608.708C679.851 611.99 679.719 614.485 679.588 616.06H628.697ZM659.389 602.538C658.865 596.368 653.749 590.327 644.436 590.327C640.238 590.327 636.696 591.641 633.942 594.398C631.188 597.023 629.614 599.781 629.219 602.538H659.389Z" fill="white"/>
</svg>
